<svg width="293" height="220" viewBox="0 0 293 220" fill="none" xmlns="http://www.w3.org/2000/svg">
<path d="M128.029 102.231C129.095 102.218 129.864 102.376 130.335 102.703C130.738 102.965 131.111 103.527 131.455 104.39C131.663 105.054 132.249 106.714 133.214 109.369C134.179 112.025 135.385 115.311 136.832 119.227C138.212 123.144 139.696 127.327 141.282 131.775C142.868 136.223 144.42 140.571 145.938 144.82C147.455 149.069 148.801 152.853 149.973 156.173C151.146 159.493 152.042 161.949 152.662 163.541C153.904 167.06 155.298 169.41 156.846 170.592C158.394 171.84 160.302 172.451 162.568 172.424C163.501 172.413 163.974 172.941 163.987 174.007C164 175.074 163.54 175.613 162.606 175.624C162.14 175.629 161.273 175.606 160.005 175.555C158.672 175.571 157.138 175.556 155.404 175.51C153.671 175.53 151.971 175.551 150.305 175.57C148.305 175.594 146.372 175.617 144.505 175.64C142.639 175.728 141.04 175.781 139.707 175.797C138.374 175.879 137.541 175.923 137.208 175.927C136.275 175.938 135.802 175.41 135.789 174.343C135.776 173.277 136.237 172.738 137.17 172.727C139.903 172.694 141.764 172.172 142.752 171.16C143.674 170.216 143.788 168.614 143.094 166.356C142.817 165.492 142.263 163.765 141.433 161.175C140.536 158.652 139.499 155.598 138.323 152.012C137.081 148.493 135.804 144.808 134.491 140.956C133.112 137.106 131.801 133.421 130.559 129.903C129.318 126.45 128.282 123.496 127.453 121.039C126.558 118.649 126.006 117.089 125.797 116.358C125.661 116.093 125.459 115.962 125.192 115.966C124.926 115.969 124.761 116.104 124.697 116.371C124.439 117.041 123.956 118.48 123.249 120.689C122.542 122.964 121.708 125.674 120.745 128.819C119.717 132.032 118.657 135.412 117.566 138.958C116.408 142.505 115.349 145.918 114.388 149.197C113.361 152.543 112.463 155.487 111.693 158.029C110.923 160.572 110.412 162.412 110.159 163.548C109.462 166.623 109.89 168.952 111.442 170.533C112.928 172.182 114.838 172.993 117.171 172.965C118.105 172.954 118.578 173.482 118.59 174.548C118.603 175.615 118.143 176.154 117.209 176.165C116.543 176.173 115.409 176.153 113.809 176.106C112.141 176.059 109.708 176.054 106.508 176.093C103.575 176.128 101.342 176.187 99.8095 176.272C98.2104 176.358 97.0776 176.405 96.411 176.413C95.4777 176.424 95.0047 175.896 94.992 174.83C94.9793 173.763 95.4396 173.224 96.3728 173.213C100.373 173.166 103.6 169.86 106.055 163.297C106.378 162.426 106.959 160.786 107.797 158.376C108.568 155.967 109.501 153.089 110.594 149.742C111.688 146.395 112.845 142.815 114.066 139C115.287 135.185 116.509 131.37 117.73 127.555C118.885 123.808 119.977 120.295 121.005 117.016C121.966 113.804 122.801 111.094 123.508 108.885C124.148 106.677 124.565 105.272 124.758 104.67C125.015 103.867 125.374 103.262 125.836 102.857C126.298 102.451 127.029 102.243 128.029 102.231Z" fill="url(#paint0_linear_2_27)"/>
<path d="M96.3 171.2C95.2333 171.2 94.4667 171.033 94 170.7C93.6 170.433 93.2333 169.867 92.9 169C92.7 168.333 92.1333 166.667 91.2 164C90.2667 161.333 89.1 158.033 87.7 154.1C86.3667 150.167 84.9333 145.967 83.4 141.5C81.8667 137.033 80.3667 132.667 78.9 128.4C77.4333 124.133 76.1333 120.333 75 117C73.8667 113.667 73 111.2 72.4 109.6C71.2 106.067 69.8333 103.7 68.3 102.5C66.7667 101.233 64.8667 100.6 62.6 100.6C61.6667 100.6 61.2 100.067 61.2 99C61.2 97.9333 61.6667 97.4 62.6 97.4C63.0667 97.4 63.9333 97.4333 65.2 97.5C66.5333 97.5 68.0667 97.5333 69.8 97.6C71.5333 97.6 73.2333 97.6 74.9 97.6C76.9 97.6 78.8333 97.6 80.7 97.6C82.5667 97.5333 84.1667 97.5 85.5 97.5C86.8333 97.4333 87.6667 97.4 88 97.4C88.9333 97.4 89.4 97.9333 89.4 99C89.4 100.067 88.9333 100.6 88 100.6C85.2667 100.6 83.4 101.1 82.4 102.1C81.4667 103.033 81.3333 104.633 82 106.9C82.2667 107.767 82.8 109.5 83.6 112.1C84.4667 114.633 85.4667 117.7 86.6 121.3C87.8 124.833 89.0333 128.533 90.3 132.4C91.6333 136.267 92.9 139.967 94.1 143.5C95.3 146.967 96.3 149.933 97.1 152.4C97.9667 154.8 98.5 156.367 98.7 157.1C98.8333 157.367 99.0333 157.5 99.3 157.5C99.5667 157.5 99.7333 157.367 99.8 157.1C100.067 156.433 100.567 155 101.3 152.8C102.033 150.533 102.9 147.833 103.9 144.7C104.967 141.5 106.067 138.133 107.2 134.6C108.4 131.067 109.5 127.667 110.5 124.4C111.567 121.067 112.5 118.133 113.3 115.6C114.1 113.067 114.633 111.233 114.9 110.1C115.633 107.033 115.233 104.7 113.7 103.1C112.233 101.433 110.333 100.6 108 100.6C107.067 100.6 106.6 100.067 106.6 99C106.6 97.9333 107.067 97.4 108 97.4C108.667 97.4 109.8 97.4333 111.4 97.5C113.067 97.5667 115.5 97.6 118.7 97.6C121.633 97.6 123.867 97.5667 125.4 97.5C127 97.4333 128.133 97.4 128.8 97.4C129.733 97.4 130.2 97.9333 130.2 99C130.2 100.067 129.733 100.6 128.8 100.6C124.8 100.6 121.533 103.867 119 110.4C118.667 111.267 118.067 112.9 117.2 115.3C116.4 117.7 115.433 120.567 114.3 123.9C113.167 127.233 111.967 130.8 110.7 134.6C109.433 138.4 108.167 142.2 106.9 146C105.7 149.733 104.567 153.233 103.5 156.5C102.5 159.7 101.633 162.4 100.9 164.6C100.233 166.8 99.8 168.2 99.6 168.8C99.3333 169.6 98.9667 170.2 98.5 170.6C98.0333 171 97.3 171.2 96.3 171.2Z" fill="url(#paint1_linear_2_27)"/>
<path d="M191.029 102.231C192.095 102.218 192.864 102.376 193.335 102.703C193.738 102.965 194.111 103.527 194.455 104.39C194.663 105.054 195.249 106.714 196.214 109.369C197.179 112.025 198.385 115.311 199.832 119.227C201.212 123.144 202.696 127.327 204.282 131.775C205.868 136.223 207.42 140.571 208.938 144.82C210.455 149.069 211.801 152.853 212.973 156.173C214.146 159.493 215.042 161.949 215.662 163.541C216.904 167.06 218.298 169.41 219.846 170.592C221.394 171.84 223.302 172.451 225.568 172.424C226.501 172.413 226.974 172.941 226.987 174.007C227 175.074 226.54 175.613 225.606 175.624C225.14 175.629 224.273 175.606 223.005 175.555C221.672 175.571 220.138 175.556 218.404 175.51C216.671 175.53 214.971 175.551 213.305 175.57C211.305 175.594 209.372 175.617 207.505 175.64C205.639 175.728 204.04 175.781 202.707 175.797C201.374 175.879 200.541 175.923 200.208 175.927C199.275 175.938 198.802 175.41 198.789 174.343C198.776 173.277 199.237 172.738 200.17 172.727C202.903 172.694 204.764 172.172 205.752 171.16C206.674 170.216 206.788 168.614 206.094 166.356C205.817 165.492 205.263 163.765 204.433 161.175C203.536 158.652 202.499 155.598 201.323 152.012C200.081 148.493 198.804 144.808 197.491 140.956C196.112 137.106 194.801 133.421 193.559 129.903C192.318 126.45 191.282 123.496 190.453 121.039C189.558 118.649 189.006 117.089 188.797 116.358C188.661 116.093 188.459 115.962 188.192 115.966C187.926 115.969 187.761 116.104 187.697 116.371C187.439 117.041 186.956 118.48 186.249 120.689C185.542 122.964 184.708 125.674 183.745 128.819C182.717 132.032 181.657 135.412 180.566 138.958C179.408 142.505 178.349 145.918 177.388 149.197C176.361 152.543 175.463 155.487 174.693 158.029C173.923 160.572 173.412 162.412 173.159 163.548C172.462 166.623 172.89 168.952 174.442 170.533C175.928 172.182 177.838 172.993 180.171 172.965C181.105 172.954 181.578 173.482 181.59 174.548C181.603 175.615 181.143 176.154 180.209 176.165C179.543 176.173 178.409 176.153 176.809 176.106C175.141 176.059 172.708 176.054 169.508 176.093C166.575 176.128 164.342 176.187 162.81 176.272C161.21 176.358 160.078 176.405 159.411 176.413C158.478 176.424 158.005 175.896 157.992 174.83C157.979 173.763 158.44 173.224 159.373 173.213C163.373 173.166 166.6 169.86 169.055 163.297C169.378 162.426 169.959 160.786 170.797 158.376C171.568 155.967 172.501 153.089 173.594 149.742C174.688 146.395 175.845 142.815 177.066 139C178.287 135.185 179.509 131.37 180.73 127.555C181.885 123.808 182.977 120.295 184.005 117.016C184.966 113.804 185.801 111.094 186.508 108.885C187.148 106.677 187.565 105.272 187.758 104.67C188.015 103.867 188.374 103.262 188.836 102.857C189.298 102.451 190.029 102.243 191.029 102.231Z" fill="url(#paint2_linear_2_27)"/>
<path d="M159.3 171.2C158.233 171.2 157.467 171.033 157 170.7C156.6 170.433 156.233 169.867 155.9 169C155.7 168.333 155.133 166.667 154.2 164C153.267 161.333 152.1 158.033 150.7 154.1C149.367 150.167 147.933 145.967 146.4 141.5C144.867 137.033 143.367 132.667 141.9 128.4C140.433 124.133 139.133 120.333 138 117C136.867 113.667 136 111.2 135.4 109.6C134.2 106.067 132.833 103.7 131.3 102.5C129.767 101.233 127.867 100.6 125.6 100.6C124.667 100.6 124.2 100.067 124.2 99C124.2 97.9333 124.667 97.4 125.6 97.4C126.067 97.4 126.933 97.4333 128.2 97.5C129.533 97.5 131.067 97.5333 132.8 97.6C134.533 97.6 136.233 97.6 137.9 97.6C139.9 97.6 141.833 97.6 143.7 97.6C145.567 97.5333 147.167 97.5 148.5 97.5C149.833 97.4333 150.667 97.4 151 97.4C151.933 97.4 152.4 97.9333 152.4 99C152.4 100.067 151.933 100.6 151 100.6C148.267 100.6 146.4 101.1 145.4 102.1C144.467 103.033 144.333 104.633 145 106.9C145.267 107.767 145.8 109.5 146.6 112.1C147.467 114.633 148.467 117.7 149.6 121.3C150.8 124.833 152.033 128.533 153.3 132.4C154.633 136.267 155.9 139.967 157.1 143.5C158.3 146.967 159.3 149.933 160.1 152.4C160.967 154.8 161.5 156.367 161.7 157.1C161.833 157.367 162.033 157.5 162.3 157.5C162.567 157.5 162.733 157.367 162.8 157.1C163.067 156.433 163.567 155 164.3 152.8C165.033 150.533 165.9 147.833 166.9 144.7C167.967 141.5 169.067 138.133 170.2 134.6C171.4 131.067 172.5 127.667 173.5 124.4C174.567 121.067 175.5 118.133 176.3 115.6C177.1 113.067 177.633 111.233 177.9 110.1C178.633 107.033 178.233 104.7 176.7 103.1C175.233 101.433 173.333 100.6 171 100.6C170.067 100.6 169.6 100.067 169.6 99C169.6 97.9333 170.067 97.4 171 97.4C171.667 97.4 172.8 97.4333 174.4 97.5C176.067 97.5667 178.5 97.6 181.7 97.6C184.633 97.6 186.867 97.5667 188.4 97.5C190 97.4333 191.133 97.4 191.8 97.4C192.733 97.4 193.2 97.9333 193.2 99C193.2 100.067 192.733 100.6 191.8 100.6C187.8 100.6 184.533 103.867 182 110.4C181.667 111.267 181.067 112.9 180.2 115.3C179.4 117.7 178.433 120.567 177.3 123.9C176.167 127.233 174.967 130.8 173.7 134.6C172.433 138.4 171.167 142.2 169.9 146C168.7 149.733 167.567 153.233 166.5 156.5C165.5 159.7 164.633 162.4 163.9 164.6C163.233 166.8 162.8 168.2 162.6 168.8C162.333 169.6 161.967 170.2 161.5 170.6C161.033 171 160.3 171.2 159.3 171.2Z" fill="url(#paint3_linear_2_27)"/>
<path d="M255.029 102.231C256.095 102.218 256.864 102.376 257.335 102.703C257.738 102.965 258.111 103.527 258.455 104.39C258.663 105.054 259.249 106.714 260.214 109.369C261.179 112.025 262.385 115.311 263.832 119.227C265.212 123.144 266.696 127.327 268.282 131.775C269.868 136.223 271.42 140.571 272.938 144.82C274.455 149.069 275.801 152.853 276.973 156.173C278.146 159.493 279.042 161.949 279.662 163.541C280.904 167.06 282.298 169.41 283.846 170.592C285.394 171.84 287.302 172.451 289.568 172.424C290.501 172.413 290.974 172.941 290.987 174.007C291 175.074 290.54 175.613 289.606 175.624C289.14 175.629 288.273 175.606 287.005 175.555C285.672 175.571 284.138 175.556 282.404 175.51C280.671 175.53 278.971 175.551 277.305 175.57C275.305 175.594 273.372 175.617 271.505 175.64C269.639 175.728 268.04 175.781 266.707 175.797C265.374 175.879 264.541 175.923 264.208 175.927C263.275 175.938 262.802 175.41 262.789 174.343C262.776 173.277 263.237 172.738 264.17 172.727C266.903 172.694 268.764 172.172 269.752 171.16C270.674 170.216 270.788 168.614 270.094 166.356C269.817 165.492 269.263 163.765 268.433 161.175C267.536 158.652 266.499 155.598 265.323 152.012C264.081 148.493 262.804 144.808 261.491 140.956C260.112 137.106 258.801 133.421 257.559 129.903C256.318 126.45 255.282 123.496 254.453 121.039C253.558 118.649 253.006 117.089 252.797 116.358C252.661 116.093 252.459 115.962 252.192 115.966C251.926 115.969 251.761 116.104 251.697 116.371C251.439 117.041 250.956 118.48 250.249 120.689C249.542 122.964 248.708 125.674 247.745 128.819C246.717 132.032 245.657 135.412 244.566 138.958C243.408 142.505 242.349 145.918 241.388 149.197C240.361 152.543 239.463 155.487 238.693 158.029C237.923 160.572 237.412 162.412 237.159 163.548C236.462 166.623 236.89 168.952 238.442 170.533C239.928 172.182 241.838 172.993 244.171 172.965C245.105 172.954 245.578 173.482 245.59 174.548C245.603 175.615 245.143 176.154 244.209 176.165C243.543 176.173 242.409 176.153 240.809 176.106C239.141 176.059 236.708 176.054 233.508 176.093C230.575 176.128 228.342 176.187 226.81 176.272C225.21 176.358 224.078 176.405 223.411 176.413C222.478 176.424 222.005 175.896 221.992 174.83C221.979 173.763 222.44 173.224 223.373 173.213C227.373 173.166 230.6 169.86 233.055 163.297C233.378 162.426 233.959 160.786 234.797 158.376C235.568 155.967 236.501 153.089 237.594 149.742C238.688 146.395 239.845 142.815 241.066 139C242.287 135.185 243.509 131.37 244.73 127.555C245.885 123.808 246.977 120.295 248.005 117.016C248.966 113.804 249.801 111.094 250.508 108.885C251.148 106.677 251.565 105.272 251.758 104.67C252.015 103.867 252.374 103.262 252.836 102.857C253.298 102.451 254.029 102.243 255.029 102.231Z" fill="url(#paint4_linear_2_27)"/>
<path d="M223.3 171.2C222.233 171.2 221.467 171.033 221 170.7C220.6 170.433 220.233 169.867 219.9 169C219.7 168.333 219.133 166.667 218.2 164C217.267 161.333 216.1 158.033 214.7 154.1C213.367 150.167 211.933 145.967 210.4 141.5C208.867 137.033 207.367 132.667 205.9 128.4C204.433 124.133 203.133 120.333 202 117C200.867 113.667 200 111.2 199.4 109.6C198.2 106.067 196.833 103.7 195.3 102.5C193.767 101.233 191.867 100.6 189.6 100.6C188.667 100.6 188.2 100.067 188.2 99C188.2 97.9333 188.667 97.4 189.6 97.4C190.067 97.4 190.933 97.4333 192.2 97.5C193.533 97.5 195.067 97.5333 196.8 97.6C198.533 97.6 200.233 97.6 201.9 97.6C203.9 97.6 205.833 97.6 207.7 97.6C209.567 97.5333 211.167 97.5 212.5 97.5C213.833 97.4333 214.667 97.4 215 97.4C215.933 97.4 216.4 97.9333 216.4 99C216.4 100.067 215.933 100.6 215 100.6C212.267 100.6 210.4 101.1 209.4 102.1C208.467 103.033 208.333 104.633 209 106.9C209.267 107.767 209.8 109.5 210.6 112.1C211.467 114.633 212.467 117.7 213.6 121.3C214.8 124.833 216.033 128.533 217.3 132.4C218.633 136.267 219.9 139.967 221.1 143.5C222.3 146.967 223.3 149.933 224.1 152.4C224.967 154.8 225.5 156.367 225.7 157.1C225.833 157.367 226.033 157.5 226.3 157.5C226.567 157.5 226.733 157.367 226.8 157.1C227.067 156.433 227.567 155 228.3 152.8C229.033 150.533 229.9 147.833 230.9 144.7C231.967 141.5 233.067 138.133 234.2 134.6C235.4 131.067 236.5 127.667 237.5 124.4C238.567 121.067 239.5 118.133 240.3 115.6C241.1 113.067 241.633 111.233 241.9 110.1C242.633 107.033 242.233 104.7 240.7 103.1C239.233 101.433 237.333 100.6 235 100.6C234.067 100.6 233.6 100.067 233.6 99C233.6 97.9333 234.067 97.4 235 97.4C235.667 97.4 236.8 97.4333 238.4 97.5C240.067 97.5667 242.5 97.6 245.7 97.6C248.633 97.6 250.867 97.5667 252.4 97.5C254 97.4333 255.133 97.4 255.8 97.4C256.733 97.4 257.2 97.9333 257.2 99C257.2 100.067 256.733 100.6 255.8 100.6C251.8 100.6 248.533 103.867 246 110.4C245.667 111.267 245.067 112.9 244.2 115.3C243.4 117.7 242.433 120.567 241.3 123.9C240.167 127.233 238.967 130.8 237.7 134.6C236.433 138.4 235.167 142.2 233.9 146C232.7 149.733 231.567 153.233 230.5 156.5C229.5 159.7 228.633 162.4 227.9 164.6C227.233 166.8 226.8 168.2 226.6 168.8C226.333 169.6 225.967 170.2 225.5 170.6C225.033 171 224.3 171.2 223.3 171.2Z" fill="url(#paint5_linear_2_27)"/>
<path d="M235.3 151.9C234.3 151.9 233.8 151.433 233.8 150.5V146.6C233.8 145.667 234.3 145.2 235.3 145.2H264.6C265.667 145.2 266.2 145.667 266.2 146.6V150.5C266.2 151.433 265.667 151.9 264.6 151.9H235.3Z" fill="url(#paint6_linear_2_27)"/>
<path d="M172.3 151.9C171.3 151.9 170.8 151.433 170.8 150.5V146.6C170.8 145.667 171.3 145.2 172.3 145.2H201.6C202.667 145.2 203.2 145.667 203.2 146.6V150.5C203.2 151.433 202.667 151.9 201.6 151.9H172.3Z" fill="url(#paint7_linear_2_27)"/>
<path d="M108.3 151.9C107.3 151.9 106.8 151.433 106.8 150.5V146.6C106.8 145.667 107.3 145.2 108.3 145.2H137.6C138.667 145.2 139.2 145.667 139.2 146.6V150.5C139.2 151.433 138.667 151.9 137.6 151.9H108.3Z" fill="url(#paint8_linear_2_27)"/>
<path d="M74.5063 94.3C71.8396 94.3 69.3729 93.6667 67.1062 92.4C64.9063 91.0667 63.1396 89.3 61.8063 87.1C60.5396 84.8333 59.9063 82.3667 59.9063 79.7C59.9063 76.9667 60.5396 74.5 61.8063 72.3C63.1396 70.1 64.9063 68.3667 67.1062 67.1C69.3729 65.7667 71.8396 65.1 74.5063 65.1C77.2396 65.1 79.7063 65.7667 81.9063 67.1C84.1063 68.3667 85.8396 70.1 87.1063 72.3C88.4396 74.5 89.1063 76.9667 89.1063 79.7C89.1063 82.3667 88.4396 84.8333 87.1063 87.1C85.8396 89.3 84.1063 91.0667 81.9063 92.4C79.7063 93.6667 77.2396 94.3 74.5063 94.3Z" fill="url(#paint9_linear_2_27)"/>
<path d="M205.128 199.12V196L218.928 196.024C219.632 196.024 220.168 195.864 220.536 195.544C220.92 195.208 221.112 194.672 221.112 193.936C221.112 193.2 220.92 192.672 220.536 192.352C220.168 192.016 219.632 191.848 218.928 191.848H210.336C208.56 191.848 207.176 191.424 206.184 190.576C205.208 189.712 204.72 188.448 204.72 186.784C204.72 185.12 205.208 183.864 206.184 183.016C207.176 182.152 208.56 181.72 210.336 181.72H223.824V184.84L210.744 184.816C210.056 184.816 209.52 184.976 209.136 185.296C208.752 185.6 208.56 186.096 208.56 186.784C208.56 187.472 208.752 187.976 209.136 188.296C209.52 188.6 210.056 188.752 210.744 188.752H219.336C221.112 188.752 222.488 189.192 223.464 190.072C224.456 190.936 224.952 192.224 224.952 193.936C224.952 195.632 224.456 196.92 223.464 197.8C222.488 198.68 221.112 199.12 219.336 199.12H205.128ZM227 204.4V186.64H235.88C238.024 186.64 239.696 187.168 240.896 188.224C242.096 189.28 242.696 190.808 242.696 192.808C242.696 194.824 242.096 196.36 240.896 197.416C239.696 198.472 238.024 199 235.88 199H230.48V204.4H227ZM235.88 189.4H230.48V196.24H235.88C236.92 196.24 237.712 195.96 238.256 195.4C238.816 194.824 239.096 193.96 239.096 192.808C239.096 191.672 238.816 190.824 238.256 190.264C237.712 189.688 236.92 189.4 235.88 189.4ZM251.195 199.12C249.051 199.12 247.379 198.592 246.179 197.536C244.979 196.464 244.379 194.896 244.379 192.832C244.379 190.752 244.979 189.184 246.179 188.128C247.379 187.056 249.051 186.52 251.195 186.52H255.635C257.779 186.52 259.451 187.056 260.651 188.128C261.851 189.184 262.451 190.752 262.451 192.832C262.451 194.896 261.851 196.464 260.651 197.536C259.451 198.592 257.779 199.12 255.635 199.12H251.195ZM251.195 196.36H255.635C256.675 196.36 257.467 196.072 258.011 195.496C258.571 194.92 258.851 194.032 258.851 192.832C258.851 191.616 258.571 190.72 258.011 190.144C257.467 189.568 256.675 189.28 255.635 189.28H251.195C250.155 189.28 249.355 189.568 248.795 190.144C248.251 190.72 247.979 191.616 247.979 192.832C247.979 194.032 248.251 194.92 248.795 195.496C249.355 196.072 250.155 196.36 251.195 196.36ZM264.617 199V186.64H274.073C275.465 186.64 276.489 186.992 277.145 187.696C277.801 188.384 278.129 189.296 278.129 190.432V193H274.601V190.864C274.601 189.904 274.121 189.424 273.161 189.424H268.145V199H264.617ZM286.471 199C285.079 199 284.055 198.656 283.399 197.968C282.743 197.264 282.415 196.344 282.415 195.208V189.4H278.839V186.64H282.415V182.848H285.895V186.64H291.031V189.4H285.895V194.776C285.895 195.752 286.375 196.24 287.335 196.24H291.703V199H286.471Z" fill="#DF3D44"/>
<defs>
<linearGradient id="paint0_linear_2_27" x1="164.84" y1="144.918" x2="92.8342" y2="146.215" gradientUnits="userSpaceOnUse">
<stop stop-color="#F37F34"/>
<stop offset="1" stop-color="#DF3D44"/>
</linearGradient>
<linearGradient id="paint1_linear_2_27" x1="60" y1="128.077" x2="132.017" y2="127.638" gradientUnits="userSpaceOnUse">
<stop stop-color="#F37F34"/>
<stop offset="1" stop-color="#DF3D44"/>
</linearGradient>
<linearGradient id="paint2_linear_2_27" x1="227.84" y1="144.918" x2="155.834" y2="146.215" gradientUnits="userSpaceOnUse">
<stop stop-color="#F37F34"/>
<stop offset="1" stop-color="#DF3D44"/>
</linearGradient>
<linearGradient id="paint3_linear_2_27" x1="123" y1="128.077" x2="195.017" y2="127.638" gradientUnits="userSpaceOnUse">
<stop stop-color="#F37F34"/>
<stop offset="1" stop-color="#DF3D44"/>
</linearGradient>
<linearGradient id="paint4_linear_2_27" x1="291.84" y1="144.918" x2="219.834" y2="146.215" gradientUnits="userSpaceOnUse">
<stop stop-color="#F37F34"/>
<stop offset="1" stop-color="#DF3D44"/>
</linearGradient>
<linearGradient id="paint5_linear_2_27" x1="187" y1="128.077" x2="259.017" y2="127.638" gradientUnits="userSpaceOnUse">
<stop stop-color="#F37F34"/>
<stop offset="1" stop-color="#DF3D44"/>
</linearGradient>
<linearGradient id="paint6_linear_2_27" x1="229" y1="128.077" x2="271.011" y2="127.928" gradientUnits="userSpaceOnUse">
<stop stop-color="#F37F34"/>
<stop offset="1" stop-color="#DF3D44"/>
</linearGradient>
<linearGradient id="paint7_linear_2_27" x1="166" y1="128.077" x2="208.011" y2="127.928" gradientUnits="userSpaceOnUse">
<stop stop-color="#F37F34"/>
<stop offset="1" stop-color="#DF3D44"/>
</linearGradient>
<linearGradient id="paint8_linear_2_27" x1="102" y1="128.077" x2="144.011" y2="127.928" gradientUnits="userSpaceOnUse">
<stop stop-color="#F37F34"/>
<stop offset="1" stop-color="#DF3D44"/>
</linearGradient>
<linearGradient id="paint9_linear_2_27" x1="-2.74987e-09" y1="74.0771" x2="150.016" y2="72.1729" gradientUnits="userSpaceOnUse">
<stop stop-color="#F37F34"/>
<stop offset="1" stop-color="#DF3D44"/>
</linearGradient>
</defs>
</svg>
